<svg width="225.601" height="113.781" viewBox="0 0 225.601 113.781" xmlns="http://www.w3.org/2000/svg"><g id="svgGroup" stroke-linecap="round" fill-rule="evenodd" font-size="9pt" stroke="#b895ff" stroke-width="0.25mm" fill="#cbb9f0" style="stroke:#b895ff;stroke-width:0.25mm;fill:#cbb9f0"><path d="M 39.601 63.177 L 61.001 26.977 Q 60.601 24.177 60.601 20.977 Q 60.601 10.977 64.301 6.177 Q 68.001 1.377 70.401 0.377 Q 73.801 -0.423 77.701 0.477 Q 81.601 1.377 84.801 3.377 Q 88.001 5.377 89.201 8.177 Q 88.401 11.777 86.201 16.777 Q 84.001 21.777 79.201 30.177 Q 80.601 32.377 82.801 34.577 Q 85.001 36.777 88.201 39.377 L 103.401 51.777 Q 111.601 58.377 115.701 65.477 Q 119.801 72.577 119.801 81.377 Q 119.801 91.977 113.801 100.177 Q 114.801 102.377 114.801 105.377 Q 114.801 109.177 112.901 111.477 Q 111.001 113.777 107.601 113.777 Q 104.401 113.777 101.401 113.377 Q 98.401 112.977 94.801 112.377 Q 89.401 113.777 83.401 113.777 Q 76.401 113.777 69.401 111.677 Q 62.401 109.577 54.801 104.977 Q 54.401 94.377 62.801 89.377 Q 73.801 96.577 83.601 96.577 Q 92.001 96.577 97.001 92.077 Q 102.001 87.577 102.001 80.577 Q 102.001 71.777 92.401 64.177 L 77.201 52.177 Q 73.201 48.977 70.001 45.577 L 50.001 79.377 Q 39.001 97.977 28.901 105.877 Q 18.801 113.777 5.801 113.777 Q 3.201 113.777 1.601 111.377 Q 0.001 108.977 0.001 105.177 Q 0.001 96.577 7.201 96.577 Q 13.601 96.577 21.401 88.677 Q 29.201 80.777 39.601 63.177 Z M 128.601 96.577 Q 135.001 96.577 141.301 90.377 Q 147.601 84.177 152.201 73.577 Q 151.401 68.977 151.401 64.177 Q 151.401 49.377 157.001 38.077 Q 162.601 26.777 172.501 20.277 Q 182.401 13.777 195.201 13.777 Q 204.801 13.777 212.701 17.477 Q 220.601 21.177 225.601 28.177 Q 223.201 36.377 214.001 39.977 Q 207.401 30.977 195.801 30.977 Q 184.201 30.977 177.101 39.677 Q 170.001 48.377 170.001 63.177 Q 170.001 78.377 178.901 87.577 Q 187.801 96.777 204.201 96.777 Q 206.801 96.777 208.501 99.277 Q 210.201 101.777 210.201 105.577 Q 210.201 109.377 208.301 111.577 Q 206.401 113.777 203.001 113.777 Q 188.801 113.777 177.801 108.577 Q 166.801 103.377 160.201 93.977 Q 147.801 113.777 127.201 113.777 Q 124.601 113.777 123.001 111.377 Q 121.401 108.977 121.401 105.177 Q 121.401 96.577 128.601 96.577 Z" vector-effect="non-scaling-stroke"/></g></svg>