<svg width="374" height="300" viewBox="0 0 374 300" fill="none" xmlns="http://www.w3.org/2000/svg">
<path d="M187 223.881V76.1194H229.543V223.881H187ZM187 76.1194C187 61.194 190.896 48.0326 198.688 36.635C206.479 24.9661 217.388 16.0108 231.413 9.76933C245.438 3.25644 261.488 0 279.565 0V32.1574C263.982 32.1574 251.671 35.9566 242.633 43.555C233.906 51.1533 229.543 62.0081 229.543 76.1194H187ZM187 223.474H229.543C229.543 237.585 233.906 248.575 242.633 256.445C251.671 264.043 263.982 267.843 279.565 267.843V300C261.488 300 245.438 296.744 231.413 290.231C217.388 283.718 206.479 274.763 198.688 263.365C190.896 251.967 187 238.67 187 223.474ZM335.198 86.7029C333.328 69.6065 327.406 56.3094 317.433 46.8114C307.771 37.0421 294.992 32.1574 279.097 32.1574V0C305.589 0 327.094 7.05563 343.613 21.1669C360.443 35.2781 370.572 54.8168 374 79.7829L335.198 86.7029ZM335.198 213.297L374 219.81C370.572 245.048 360.443 264.722 343.613 278.833C327.094 292.944 305.589 300 279.097 300V267.843C294.992 267.843 307.771 263.094 317.433 253.596C327.406 243.826 333.328 230.393 335.198 213.297Z" fill="#39166B"/>
<path d="M123.051 233.722C123.051 226.104 120.254 219.857 114.661 214.981C109.068 209.801 101.766 205.23 92.7542 201.269C84.0537 197.002 74.7316 192.736 64.7881 188.47C55.1554 184.204 45.8333 179.328 36.822 173.843C28.1215 168.053 20.9746 160.892 15.3814 152.36C9.78814 143.523 6.99153 132.858 6.99153 120.364C6.99153 120.364 8.23446 120.364 10.7203 120.364C13.5169 120.364 16.935 120.364 20.9746 120.364C25.3249 120.364 29.5198 120.364 33.5593 120.364C37.5989 120.364 41.0169 120.364 43.8136 120.364C46.6102 120.364 48.0085 120.364 48.0085 120.364C48.0085 127.982 50.8051 134.381 56.3983 139.562C61.9915 144.437 69.1384 148.856 77.839 152.817C86.8503 156.779 96.3277 161.045 106.271 165.616C116.215 169.882 125.537 174.91 134.237 180.7C142.938 186.489 150.085 193.65 155.678 202.183C161.582 210.41 164.534 220.924 164.534 233.722C164.534 233.722 163.136 233.722 160.339 233.722C157.542 233.722 153.969 233.722 149.619 233.722C145.579 233.722 141.54 233.722 137.5 233.722C133.46 233.722 130.042 233.722 127.246 233.722C124.449 233.722 123.051 233.722 123.051 233.722ZM83.4322 300V263.89C94.9294 263.89 104.407 261.147 111.864 255.662C119.322 249.873 123.051 242.559 123.051 233.722H164.534C164.534 246.521 160.96 257.948 153.814 268.004C146.977 278.06 137.5 285.983 125.381 291.772C113.263 297.257 99.2797 300 83.4322 300ZM6.99153 120.364C6.99153 107.87 10.0989 96.7475 16.3136 86.9963C22.839 76.9403 31.8503 69.1698 43.3475 63.6847C54.8446 57.8949 67.5848 55 81.5678 55V91.1101C71.935 91.1101 63.8559 93.8526 57.3305 99.3377C51.1158 104.823 48.0085 111.831 48.0085 120.364H6.99153ZM39.1525 224.123C40.7062 237.531 45.678 247.587 54.0678 254.291C62.4576 260.69 72.2458 263.89 83.4322 263.89V300C69.1384 300 55.9322 297.105 43.8136 291.315C31.6949 285.525 21.7514 277.45 13.9831 267.09C6.52543 256.729 1.86441 244.997 0 231.894L39.1525 224.123ZM125.381 130.877C123.828 117.164 118.856 107.108 110.466 100.709C102.387 94.3097 92.7542 91.1101 81.5678 91.1101V55C96.1723 55 109.379 57.8949 121.186 63.6847C132.994 69.4745 142.782 77.5497 150.551 87.9104C158.319 97.9664 163.136 109.698 165 123.106L125.381 130.877Z" fill="#39166B"/>
</svg>
